<?xml version="1.0" encoding="UTF-8"?>
<svg id="Layer_1" data-name="Layer 1" xmlns="http://www.w3.org/2000/svg" viewBox="0 0 146.76 63.13">
  <defs>
    <style>
      .cls-1 {
        fill: #2b2b2b;
      }
    </style>
  </defs>
  <path class="cls-1" d="M82.55,13.57c.28.03.34.29.46.48.35.57.68,1.14,1.05,1.75,1.1.11,2.19.22,3.28.33,5.04.52,10.07,1.07,15.04,2.06,1.81.36,3.63.59,5.49.58,3.02-.03,6.04.18,9.05.5,2.69.29,5.35.79,7.99,1.4,2.9.67,5.81,1.35,8.63,2.33.67.23,1.32.49,1.97.77.36.16.73.33,1.01.59.59.54,1.31.85,2,1.21.73.37,1.44.8,2.13,1.25.56.37,1.01.87,1.35,1.46.16.27.35.52.55.76.34.44.56.93.65,1.49.05.3.12.62.28.88.83,1.35,1.22,2.79,1.13,4.37,0,.12.02.23.03.43.3.17.64.37.98.54.93.47,1.32,1.22,1.07,2.23-.19.76-.42,1.51-.7,2.24-.35.92-.87,1.76-1.49,2.53-.15.18-.3.37-.47.53-.51.48-.88.52-1.48.16-.16-.1-.3-.23-.43-.33-3.07,2.46-6.64,3.6-10.36,4.35-2.31.46-4.63.83-6.95,1.25-.12.02-.21.19-.32.3-.41-.02-.82-.05-1.24-.07,0,.02,0,.05,0,.07.41,0,.82,0,1.23,0,1.01-.1,2.03-.19,3.04-.32,1.56-.2,3.11-.43,4.66-.65.07,0,.15.02.3.05-.03.14-.02.28-.08.4-.77,1.5-1.55,3-2.32,4.5-.41.81-1.09,1.33-1.87,1.74-1.05.55-2.18.89-3.34,1.1-2.55.47-5.08.39-7.58-.33-.99-.28-1.92-.71-2.77-1.29-1.02-.7-1.85-1.58-2.43-2.68-.13-.24-.26-.47-.41-.74-.64,0-1.27,0-1.9,0-5.3.06-10.61.12-15.91.17-1.93.02-1.33.19-2.92-.89-.36-.24-.71-.49-1.07-.73-.03-.02-.07-.01-.12-.02-.3.1-.21.38-.23.59-.14,1.45-.27,2.89-.58,4.31-.6,2.77-2.2,4.72-4.69,6-1.62.84-3.36,1.31-5.14,1.63-.12.02-.24.02-.35.05-2.88.71-5.42-.24-7.88-1.59-.41-.22-.79-.53-1.1-.87-2.63-2.86-4.5-6.13-5.28-9.97-.07-.35-.11-.7-.17-1.05-.06-.31-.12-.61-.19-.95-.55-.3-1.09-.63-1.65-.9-1.83-.87-2.88-2.33-3.41-4.26-.51-1.84-.74-3.69-.59-5.59.09-1.11.41-2.16.89-3.16.4-.83,1.04-1.4,1.93-1.6,2.07-.45,4.15-.91,6.3-.55,1.25.21,2.46.54,3.6,1.07,1.25.58,2.45,1.23,3.67,1.88.54.29,1.07.6,1.87.88-.56-.96-1.31-1.5-1.84-2.36.98,0,1.77.35,2.6.48.89.14,1.77.34,2.66.49.85.14,1.7.26,2.59.25-.22-.11-.44-.24-.68-.34-.76-.31-1.53-.6-2.3-.9-.15-.06-.28-.13-.23-.33l-.02.03c.95.21,1.9.42,2.85.63,1.25.28,2.5.56,3.79.73,0-.51-.58-.56-.64-1.03,1.62.39,3.16.89,4.41,2.03.4.36.77.78,1.36.85,0,0-.03,0-.03,0,.08.39.36.55.73.61.08.08.15.16.23.25.43.25.77.67,1.34.69.06-.23.11-.45.17-.68.77-.27,1.28.61,2.08.4-.09-.44-.48-.57-.76-.82-.26.05-.52.1-.87.17-.33-.24-.7-.52-1.12-.83.22-.29.42-.53.57-.79.22-.36.55-.69.42-1.17l-.03.04c.09-.17.22-.34.25-.52.23-1.56-.02-3.05-.72-4.46-.48-.96-1.29-1.44-2.37-1.46-.39,0-.71.09-.89.44-.18.34-.32.71-.44,1.08-.07.21-.06.45-.09.69-.28-.14-.51-.26-.79-.4-.09-.97.26-1.8.98-2.49.2-.19.42-.35.63-.53l-.03.03c.93-.36,1.84-.26,2.76.05,1.46.48,2.84,1.12,4.12,1.99.29.2.6.37.91.52.42.2.88.33,1.29.56,1.29.74,2.58,1.5,3.84,2.29.98.61,1.77,1.44,2.32,2.46.63,1.16.48,2.37-.35,3.4-.5.63-1.12,1.1-1.87,1.38-.66.25-.92.77-.98,1.51.39.04.73.1,1.07.11,1.02.04,2.04.05,3.06.09.15,0,.38-.09.47.19-.7.36-1.51.31-2.3.74.61.23,1.12.17,1.62.2.47.03.94.03,1.41.05.49.02.99.05,1.48.07-1.45.19-2.9.28-4.34.41-1.21.11-2.42.27-3.62.42-.14.02-.28.12-.51.22.21.05.28.08.36.08,3.69,0,7.38-.3,11.06-.53.19-.01.42-.02.56-.13.93-.71,2.01-1.25,2.56-2.37.19-.39.41-.77.68-1.1.64-.81,1.42-.92,2.27-.33.19.13.36.29.53.42.32-.07.57-.18.56-.53-.02-.64.35-1.02.83-1.32.33-.21.67-.41,1.03-.57,2.03-.93,4.17-1.35,6.39-1.4.13,0,.27.06.53.12-.71.26-1.28.46-1.85.67-.15.02-.3.03-.45.05.16.08.36.22.42-.08.84.14,1.63-.19,2.44-.3,3.62-.5,7.2-.43,10.73.55.12.03.29.14.42-.08-.78-.64-1.72-1.02-2.62-1.48,1.36-.19,2.52.49,3.97.91-.96-1.09-1.99-1.74-3.01-2.55.58-.15.97.08,1.37.18,1.04.25,1.84.85,2.37,1.79.33.58.66,1.16.99,1.74.07.12.16.21.3.4.07-.3.11-.47.17-.75.35.38.65.71.97,1.06.41-.48.37-.91.14-1.36-.12-.24-.27-.46-.4-.7-.18-.34-.32-.71-.53-1.04-.29-.46-.63-.9-.94-1.35-.03-.05-.01-.14-.02-.23.17.02.34.04.61.07-.12-.23-.19-.41-.29-.55-.62-.81-1.25-1.61-1.87-2.42-.24-.31-.55-.59-.71-.93-.25-.53-.65-.87-1.11-1.18-.05-.03-.13-.01-.2-.02-.06.33.48.44.35.75-.14.15-.36-.05-.41.2.01.3.49.6-.07.93-1.08-.67-2.14-1.41-3.09-2.29-.37-.35-.74-.7-1.06-1.1-.82-1.05-.75-1.8.22-2.76.02-.02.02-.06.05-.16-.42-.17-.85-.36-1.29-.52-2.25-.82-4.56-1.42-6.89-1.97-2.59-.62-5.19-1.22-7.83-1.57-1.55-.21-3.11-.36-4.68-.53-.33-.03-.66-.16-1.16.08.52-.04.86-.07,1.19-.09.07.21.23.28.44.32,2.66.48,5.32.93,7.97,1.45,2.07.41,4.14.85,6.12,1.61.36.14.72.3,1.06.49.09.05.08.26.12.39h0c-1.13-.58-2.37-.78-3.58-1.09-1.81-.47-3.65-.55-5.49-.22-.6.11-1.16.06-1.74-.07-3.52-.82-7.03-1.65-10.55-2.47-1.99-.46-3.97-.95-6.01-1.12-1.37-.11-2.73-.31-4.1-.46-3.08-.36-6.17-.72-9.25-1.07-2.42-.28-4.84-.57-7.26-.83-.58-.06-1.17-.05-1.76-.03-.67.03-1.33.11-2,.17-.94.1-1.88.14-2.8.33-.4.08-.75.14-1.14.07-1.63-.28-3.25-.56-4.88-.82-.34-.05-.71-.06-1.05-.03-.74.07-1.48.16-2.22.26-.09.01-.17.11-.42.28,1.09.08,2,.14,2.91.21-.26.17-.52.23-.78.24-1.14.04-2.28.07-3.42.09-.71,0-1.4.08-2.1.27-1.41.37-2.82.69-4.23,1.04-.38.09-.74.22-1.14.33-.05.22-.07.42-.14.6-.08.22-.2.42-.33.69-6.32-.3-12.64-.74-18.96-.6-.06,0-.12-.08-.23-.17.33-.32.65-.64.97-.96v-2.66c.16.54.26.91.37,1.28.08.26.14.53.24.79.25.7.76,1.1,1.49,1.16.42.03.86-.02,1.28-.08.35-.05.69-.17,1.03-.24,5.08-1.08,10.23-1.71,15.37-2.33,2.61-.31,5.23-.6,7.85-.88.66-.07,1.34-.1,2-.02,1.05.12,2.09.35,3.13.52.23.04.46.04.7.07,0-.04,0-.09.01-.13-1.25-.31-2.5-.62-3.86-.96-.36-.67-.76-1.43-1.19-2.18-.12-.22-.15-.55-.5-.58.03-.22,0-.41-.19-.54-.06-.06-.11-.12-.17-.17-.02.06-.04.12-.06.17-.77-1.4-1.55-2.8-2.35-4.25-1.48,0-2.93,0-4.38,0-.39,0-.79,0-1.18-.04-.11-.01-.2-.15-.34-.27.4-.27.76-.2,1.1-.2,1.22,0,2.44.02,3.66.01.12,0,.33.09.36-.16-.06-.06-.1-.13-.17-.15-1.25-.47-2.54-.84-3.86-1.02-.38-.05-.78.01-1.16.09-.15.03-.36.22-.38.37-.05.28-.2.39-.44.48-.48.17-.96.35-1.43.55-.91.39-1.76.88-2.47,1.57-.84.81-1.29,1.76-1.17,2.96.03.3,0,.61,0,.96-2.91.21-4.98,1.43-5.47,4.55-1.41.42-2.8.79-4.23,1.06-.27.05-.55.06-.82.06-.96-.02-1.27-.24-1.51-1.16-.39-1.49-.51-3.01-.45-4.42.3-.42.62-.7.72-1.04.24-.79.77-1.24,1.48-1.57.61-.28,1.21-.57,1.8-.88.45-.24.9-.48,1.33-.76.21-.14.35-.38.58-.64-1.39-1.08-3.12-1.15-4.66-1.92.26-.17.4-.31.58-.37.71-.24,1.41-.5,2.13-.65,2.74-.56,5.51-.89,8.31-.92,4.13-.05,8.25-.02,12.38.02,1.53.02,3.06.15,4.59.26,1.8.12,3.6.27,5.41.4.16.01.38.11.5-.17-.21-.3-.48-.47-.86-.5-1.92-.16-3.83-.35-5.75-.5-2.62-.2-5.25-.36-7.88-.56-2.83-.21-5.65-.17-8.48-.03-.74.04-1.5.08-2.23-.01-.83-.1-1.64-.08-2.47,0-1.17.12-2.35.28-3.52.32-.99.03-1.95.15-2.9.41-.33.09-.7.13-1.04.11-2.12-.11-4.23-.27-6.35-.37-1.93-.09-3.84.13-5.73.58-.48.11-.86.35-1.23.71.13.36.35.65.29,1.08-.49,3.46-.93,6.93-1.4,10.39-.03.26-.15.5-.23.75-1.81.13-3.51-.14-5.2-.53-.3-.07-.62-.09-.92-.14l.05.03c-.27-.47-.7-.67-1.22-.77-1.04-.19-1.38-.65-1.32-1.75.29.17.07.86.75.69.22-.83.18-1.75.71-2.51.02-.24.04-.48.06-.72.03,0,.07-.02.1-.03-.03.02-.05.04-.07.06-.22.22-.17.46-.06.71-.11-.01-.26-.08-.31-.03-.16.14-.27.32-.53.65.15-1.12.55-1.91.98-2.7.1-.18.35-.34.12-.65-.36.23-.72.46-1.08.68-.23.14-.46.28-.71.4-.05.03-.14-.02-.21-.04.04-.2.08-.39.12-.59-.19-.02-.3-.03-.42-.04l.02.02c.1-.16.17-.35.3-.46,3.24-2.67,6.81-4.77,10.74-6.24.4-.15.83-.23,1.25-.32,1.54-.33,3.08-.63,4.61-.97,2.27-.5,4.57-.78,6.88-.92C43.48.16,47.6-.04,51.73,0c3.42.04,6.83.1,10.24.39,3.44.29,6.88.62,10.26,1.38,1.19.27,2.37.56,3.46,1.11.37.19.83.28.96.77,0,0,.02-.02.02-.02-.18.02-.36.04-.54.06.05-.38-.29-.42-.51-.53-1.17-.58-2.43-.88-3.69-1.16-1.03-.23-2.06-.42-3.1-.63-.32,0-.63,0-.95,0,0,.05,0,.09.01.14.31-.05.63-.09.94-.14,0,.23.11.33.33.39,2.33.63,4.66,1.27,6.99,1.9.19.16.38.32.57.47.05.06.1.13.15.19.09.17.17.34.26.52l-.03-.04c.13.17.25.34.38.51.03.05.06.1.09.15l.03.56c-.56-.22-.68-1.01-1.38-1.15-.09.49.18.81.32,1.16.19.47.39.93.59,1.39-.45-.5-.91-1.01-1.46-1.63-.04.4-.06.63-.1,1.01-.96-1.18-2.09-1.77-3.43-1.93-2.22-.26-4.46-.38-6.7-.26-.43.02-.87.03-1.22.33.25,1.3,3.24,7.69,4.42,9.42,1.19.06,2.45.03,3.7.02,1.22,0,2.42.09,3.63.27,1.22.19,2.43.5,3.78.48-.53-1.21-1.09-2.27-1.73-3.3-.02-.03-.07-.04-.1-.05h.03c.29-.11.44.07.58.27.62.86,1.23,1.72,1.85,2.58.16.22.31.46.5.65.2.19.46.29.73-.02-.16-.3-.32-.61-.49-.92-.76-1.33-1.52-2.65-2.27-3.98-.15-.27-.23-.57-.35-.86.23.25.49.48.68.76,1.05,1.5,2.09,3.01,3.13,4.52.18.26.34.53.56.75.16.16.39.29.59-.06-.23-.42-.49-.85-.72-1.3-.1-.2-.14-.43-.2-.64l-.02.02ZM95.92,39.17s-.06.03-.09.04c-.02,0-.05-.01-.08-.02.06,0,.12,0,.18,0,0,.04,0,.09.03.11.61.44,1.31.57,2.04.58.17,0,.27-.11.18-.3-.75-.13-1.5-.27-2.26-.4ZM23.22,4.92c-.22.15-.45.3-.68.44-.34.2-.68.38-1.02.59-.36.22-.58.52-.56.96v-.03c.1.25-.12.34-.26.46-.31.26-.69.46-.95.91,1.13-.43,3.95-1.98,5.74-3.14,0-.07.23-.04.07-.17-.01.07-.03.14-.04.21-.32-.14-.6-.01-.88.12-.7.32-1.39.63-2.09.95.19-.25.37-.5.57-.74.13-.16.22-.32.08-.52.04.02.09.04.13.06-.04-.03-.08-.06-.11-.1ZM86.78,40.86c.11-.02.22-.05.32-.07.05.03.1.04.11.07.03.07.05.15.08.22.47,1.21,1.34,1.89,2.65,1.99.31.02.62.11.93.17,2.35.49,4.69.37,7.03-.04.54-.1,1.07-.26,1.51-.62.39-.32.52-.64.38-1.02-.17-.45-.4-.87-.97-.88-1.35-.03-2.64-.35-3.95-.63-1.9-.41-3.82-.48-5.75-.28-.43.04-.85.14-1.27.25-.47.13-.86.38-1.03.88-.29.49-.53,1.22-.44,1.38h.4v-1.41ZM72.3,49.31c.94-.42,1.28-.96,1.09-1.8-.05-.21-.21-.41-.37-.57-.17-.18-.45-.13-.62.06-.17.19-.16.55-.6.56-.02-.18-.02-.36-.06-.53-.05-.22-.13-.43-.22-.69-.34.05-.63.08-.96.13-.1-.65.44-1,.63-1.54-.31-.37-.63-.75-.95-1.12-.54.23-.79.66-.92,1.13-.64-.14-.72-.18-.67-.5.05-.34.14-.68.22-1.02.4-.06.74-.1,1.05-.15,0-.53-.01-.99.01-1.46,0-.09.14-.17.2-.23.21.14.4.26.6.39-.05.98.53,1.74.96,2.59.53-.06,1.02-.12,1.53-.17.29-.69.57-1.33.82-1.99.25-.67.77-1.25.88-2.06-.51.06-.94.18-1.36.15-.42-.03-.82-.2-1.22-.31-.32.21-.61.4-.91.59-.41-.37-.8-.68-.98-1.23.38-.42.75-.83,1.12-1.24.29.03.55.06.78.09.13.35.24.64.38,1.02.56-.47,1.05-.89,1.55-1.32.27.18.5.33.73.48.23.15.45.3.7.47.31-.16.6-.32.9-.48-.56-1.03-1.25-1.49-2.24-1.44-.59.03-1.17.15-1.75.2-.18.02-.42.17-.61-.15.47-.13.9-.26,1.42-.41-.69-.51-1.29-.44-1.92-.06-1.9,1.15-3.21,2.75-3.81,4.9-.17.6-.29,1.22-.45,1.83-.35,1.31-.42,2.64-.24,3.98.27,2.02.61,4.04,1.23,5.99.17.55.24,1.17.95,1.38.13.04.21.22.31.34.62.76,1.22,1.54,1.85,2.29.3.36.62.72.99,1,.39.3.84.54,1.51.36-.35-.17-.6-.28-.84-.41-.14-.08-.35-.13-.27-.4.86.22,1.72.34,2.58.18.14-.03.31-.08.21-.34-.24-.05-.49-.1-.78-.17.17-.22.31-.39.45-.56-.23-.25-.42-.46-.69-.76,1.21-.02,2.23-.29,3.18-.8.57-.31,1-.74,1.3-1.32.68-1.31,1.08-2.69,1.21-4.16.05-.57.14-1.15-.03-1.73-.13.23-.12.51-.24.7-.13.21-.39.35-.58.5.08.52.16.99.23,1.45.03.17,0,.31-.29.33-.26-.48-.54-.98-.8-1.45.12-.24.2-.4.31-.63-.25-.08-.45-.14-.75-.24.09.78.1,1.45.25,2.09.16.67.46,1.31.72,1.99-.29.14-.53.25-.75.35-.02.3-.04.55-.06.88-.55-.39-1.01-.72-1.69-1.2.18.43.3.6.31.78.04.38.07.78.01,1.16-.03.24-.13.55-.54.46-.11-.02-.27.12-.38.21-.23.2-.49.22-.77.15-.27-.06-.54-.11-.86-.18-.38-.51-.79-1.04-1.18-1.58-.13-.18-.32-.35-.18-.6.41-.14.81-.27,1.27-.43-.13-.37-.25-.65-.33-.95-.2-.72-.39-1.44-.56-2.16-.04-.17-.07-.4.29-.47.74.76.95,1.92,1.78,2.76.22-.41.42-.74.59-1.09.37-.74.74-1.47,1.1-2.22.21-.44.53-.67,1.02-.65.16,0,.31.04.47.04.31,0,.35-.14.13-.59-.22.06-.44.14-.66.19-.46.09-.68-.1-.64-.56.07-.82.14-1.64.21-2.46.02-.22.03-.45.05-.63.38-.19.7-.33.99-.52.09-.06.1-.25.17-.44h-.86c-.31-.81-.3-.86.52-1.87h.44c-.32-1.16-.87-2.03-1.94-2.61.06.62.04.66.24.79.78.52.67,1.24.48,1.98-.02.07-.16.12-.26.19-.15-.33-.27-.6-.44-.98-.16.41-.29.72-.45,1.12-.18-.27-.33-.49-.5-.75-.37.58-.71,1.15-1.09,1.69-.39.57-.82,1.12-1.23,1.67,1.55,1.53.98,3.36-.23,4.52-.27.26-.59.39-.95.43-.07,0-.15-.13-.23-.2h-.02ZM116.61,43.08c-.05.15.12.23.22.33.55.57-.18,1.1-.06,1.66.06.28-.1.55-.34.71-.19.13-.41.22-.63.31-.14.06-.32.04-.46.11-.09.04-.19.17-.19.26,0,.1.06.26.14.3,1.23.6,2.6.71,3.51-.21.13-.13.27-.25.55-.51-.07.45-.11.74-.15,1.01.52.23.98-.25,1.54-.05-.48.64-1.08.89-1.75,1.01-.31.06-.63.04-.92.14-1.14.38-2.17.02-3.18-.44-.45-.2-.73-.59-.88-1.06-.17-.52,0-.81.5-.99.48-.17.95-.35,1.4-.58.16-.08.24-.33.37-.52-1.25-.51-1.98-.5-2.56-.02.12.11.23.21.42.38-1.1.21-2.06.17-2.98-.26-.23-.11-.43-.14-.67-.12-2.04.13-4.07.31-6.11.36-2.59.06-5.19.02-7.78.01-2.28,0-4.55-.18-6.82-.44-.18-.02-.45-.06-.53-.18-.36-.56-1.05-.63-1.49-1.06-.22-.22-.51-.18-.78-.15-.74.09-1.48.18-2.22.28-.05,0-.09.11-.15.18.11.18.23.37.41.66-.48-.11-.87-.17-1.24-.28-.64-.19-.67-.25-.87-1.08-.15-.11-.31-.24-.48-.33-.17-.1-.28-.38-.58-.24.05.12.08.23.14.32.65,1.07,1.3,2.15,1.97,3.22.19.3.4.59.66.82.28.26.6.5,1.05.38-.04-.2-.07-.37-.12-.58.15.06.27.08.35.15.44.36.92.39,1.43.17.18-.07.37-.13.56-.16.76-.13,1.11.06,1.37.76.11.29.17.59.25.84,1.2.64,2.75,1.2,4.58,1.7,2.94.8,5.95,1.08,8.98,1.12,4.17.05,8.33-.22,12.48-.48.34-.02.68-.11,1.22-.19-.64-.31-1.11-.5-1.53-.76-.46-.28-.9-.62-1.1-1.26,1.72.22,3.38.47,5.03.65,1.72.19,3.45.24,5.18.1,1.65-.14,3.34.02,5-.46-.09-.11-.14-.17-.21-.25.78-.14,1.54-.27,2.3-.4,1.2-.21,2.36-.56,3.49-1.03,2.41-1,4.61-2.35,6.75-3.79.06-.23.12-.45.17-.67,1.11-.23,1.92-.77,2.41-1.76-.2-.17-.35-.32-.52-.44-.12-.08-.27-.19-.39-.17-.57.11-1.08-.12-1.58-.28-.51.22-.74.86-1.39.85-.1-.43-.2-.84-.3-1.26h.62c-.03-.13-.03-.26-.09-.33-.32-.34-.63-.71-1.01-.97-1.53-1.04-3.25-1.57-5.1-1.59-2-.02-4,.1-5.99.36-3.36.44-6.48,1.52-9.37,3.3-.06.58.34,1.15,0,1.78-.39-.13-.75-.05-1.1.18-.48.32-.98.61-1.5.93ZM103.6,38.07s-.06-.08-.1-.13c.09-.11.17-.22.26-.32.43-.45.42-.97.27-1.53-.45-1.63-1.87-3.41-3.46-4.29-.1.18-.22.28-.46.22-.16-.04-.35,0-.54,0-.02.35-.04.62-.06.9-.02.28.06.58-.08.88-.4-.33-.32-.77-.46-1.12-.13-.34.11-.73-.12-1.11-.1.12-.18.17-.19.23-.03.31-.05.62-.06.94-.04.86.35,1.63.6,2.59-1.24-.97-1.29-2.31-1.66-3.52-.1.28-.13.55-.17.82-.26,1.66.32,3.01,1.54,4.11.26.23.5.67.98.29.07-.05.28.08.43.14.27.12.51.34.83.34.06-.23.1-.42.16-.68.54.63,1.05,1.22,1.54,1.82.04.05.03.14.05.27-.8.37-1.75.29-2.52.72-.02.32.17.37.37.37.84,0,1.63-.22,2.42-.45.64-.18,1.12-.52,1.46-1.07-.09-.13-.2-.24-.23-.37-.03-.13.16-.28-.02-.41-.26.12-.52.24-.78.37ZM25.12,11.98c.11-.63.22-1.23.31-1.84.09-.62.2-1.24.24-1.86.04-.6.21-1.2.15-1.91-.27.12-.45.19-.61.27-1.16.57-2.3,1.17-3.47,1.71-1.36.63-2.26,1.65-2.74,3.05-.07.2-.06.44-.09.73,2.1.02,4.12-.07,6.21-.15ZM63.54,1.75c0-.05.01-.1.02-.16-.18-.07-.35-.16-.53-.22-1.85-.55-3.73-.93-5.66-.99-5.73-.16-11.46-.09-17.19.25-.55.03-1.1.08-1.64.17-.69.11-1.37.28-1.9.88.68.41,1.4.38,2.09.49.65.1,1.32.16,1.94-.24.18-.12.45-.13.68-.16,2.72-.44,5.46-.68,8.21-.68,4.44,0,8.87.2,13.28.65.23.02.46,0,.69,0ZM141.45,28.15c-.4-.2-.65-.3-.87-.45-.42-.29-.8-.64-1.23-.9-.53-.32-1.1-.6-1.66-.86-.1-.05-.31.03-.41.12-.17.16-.12.4.04.52.24.18.53.33.81.45,1.51.66,2.75,1.64,3.73,2.96.15.2.33.38.6.7-.04-1.13-.58-1.85-1-2.55ZM104.03,34.21c.19.67.38,1.33.57,2,.34.01.44.44.82.45.36-1.3-.44-1.92-1.38-2.44ZM62.59,2.08q1.57.22,2.22-.03c-.33-.05-.55-.11-.78-.1-.42.01-.84.07-1.44.13ZM79.07,42.72l.14.09c.03-.06.09-.13.07-.17-.02-.05-.1-.08-.16-.12-.02.07-.04.13-.06.2ZM125.25,37.06l.09-.04-.09-.03v.07ZM81.5,41.78c.02-.07.03-.1.03-.13-.02,0-.05.01-.07.02,0,.03.02.05.03.12Z"/>
  <path class="cls-1" d="M90.6,26.99c-1.63-.23-3.05,1.74-2.81,3.18.19,1.13.4,2.24.72,3.34.08.26.15.52.23.81-.39.09-.53-.2-.71-.35-2.71-2.4-5.55-4.63-8.58-6.62-.92-.6-1.86-1.17-2.81-1.74-2.93-1.75-6.07-2.92-9.43-3.54-1.93-.35-3.85-.78-5.77-1.17-.31-.06-.62-.08-.94-.08-4.01,0-8.02,0-12.03,0-.27,0-.54.03-.81.05-1.86,2.14-3.15,4.52-3.43,7.5-.26-.73-.22-1.51.03-2.7.18-.85.43-1.68.86-2.44.44-.77.96-1.5,1.45-2.24-.78-.21-2.9-.26-4.64-.1-1.76,1.96-3.19,6.43-2.97,9.34.48.4,1.09.32,1.67.5-.24.01-.48.04-.72.03-.27,0-.55-.03-.89-.06-.04.22-.09.43-.14.73.38.09.71.19,1.04.24,1.48.19,2.96.37,4.44.55,2.92.36,5.85.73,8.77,1.09,1.6.2,3.2.38,4.8.59.26.03.5.12.78.19q-1.17,1.86-1.85,4.68c-.24,0-.5.05-.76.02-3.66-.5-7.31-1.02-10.97-1.53-3.7-.51-7.39-1-11.09-1.51-2.57-.35-5.13-.72-7.7-1.07-.43-.06-.86-.08-1.29-.08-.06,0-.15.15-.18.24-.02.05.05.17.1.18.3.09.6.17.91.22,3.07.42,6.15.84,9.22,1.26,2.33.32,4.67.65,7,.98.07.01.14.06.28.11.08.25.18.54.27.84.48,1.6,1.48,2.77,2.98,3.46.71.33,1.47.56,2.23.72,3.08.63,6.21.96,9.34,1.2.23.02.47.04.76.06.54.68,1.05,1.42,1.65,2.09.57.64,1.23,1.2,1.86,1.81-.1.27-.32.11-.48.09-1.97-.35-3.94-.71-5.91-1.07-5.37-.99-10.73-1.99-16.1-2.98-3.94-.73-7.88-1.45-11.82-2.19-.58-.11-1.15-.24-1.67-.54-.19-.11-.43-.14-.69-.22-.09,1-.16,1.94-.26,2.87-.07.66-.16,1.33-.28,1.98-.22,1.14-.69,2.17-1.43,3.06-.99,1.18-2.2,1.97-3.77,2.2-1.99.29-3.91.17-5.79-.56-1.62-.62-2.79-1.71-3.54-3.27-.6-1.25-.98-2.57-1.24-3.92-.41-2.13-.54-4.28-.52-6.45,0-.39,0-.78,0-1.2-.36-.1-.66-.18-.96-.27-1.34-.38-2.44-1.11-3.15-2.31-1.1-1.87-1.92-3.87-2.51-5.95-.03-.1,0-.22,0-.34.4-.2.78-.09,1.16.01,1.54.43,3.1.47,4.67.26.15-.02.34-.08.46-.02.66.35,1.38.24,2.08.3,1.23.11,2.4.38,3.51.91.28.13.58.26.88.31,1.75.24,3.51.46,5.26.68.15.02.32.04.47,0,.08-.02.15-.15.18-.24.02-.05-.05-.18-.1-.19-.34-.08-.68-.17-1.03-.21-1.29-.15-2.58-.3-3.87-.42-.63-.06-1.23-.22-1.82-.44-1.48-.53-2.92-1.16-4.56-1.35.03-.19.02-.35.09-.47.94-1.64,1.99-3.2,3.31-4.57,1.34-1.4,2.99-2.12,4.92-2.21.12,0,.23.02.35.03.03.28-.2.29-.35.36-.71.33-1.45.6-2.14.98-.47.26-.91.63-1.27,1.03-.61.69-.68,1.48-.21,2.29.43.73,1.01,1.3,1.76,1.69,1.51.78,3.14,1.19,4.8,1.61.18-1.23.29-2.4.54-3.54.25-1.14.64-2.25.96-3.38-1.17-.73-2.33-1.47-3.5-2.16-1.83-1.09-3.85-1.28-5.92-1.18-.19,0-.39.07-.57.14-1.82.8-3.44,1.88-4.78,3.51.42,0,.53-.29.72-.44.25-.19.48-.41.72-.6.22-.17.44-.33.67-.48.23-.15.47-.29.71-.42.24-.13.49-.26.74-.37.29-.12.59-.22.88-.33.26-.1.51-.19.77-.28,0,0,0,.02,0,.02-.01.1.02.26-.04.3-.25.18-.52.33-.78.5-1.36.86-2.5,1.95-3.4,3.28-.15.22-.23.48-.34.72-.05.04-.11.07-.16.1.03.05.06.09.09.14.02-.03.06-.05.06-.08,0-.06-.01-.13-.02-.19.35.04.43-.29.6-.47.37-.39.71-.82,1.19-1.13.18.44.2.81-.05,1.14-.62.87-.98,1.87-1.38,2.85-.18.43-.38.85-.57,1.26.18.16.34.31.61.56-.37.04-.59.07-.8.08-1.92.02-3.83-.18-5.73-.48-.27-.04-.54-.12-.78-.24-.44-.21-.51-.72-.15-1.07.22-.21.49-.38.74-.56,0,0-.03,0-.03,0,.22-.04.43-.08.68-.13-.03-1.19.5-2.09,1.11-2.96.73-1.03,1.61-1.92,2.61-2.68.25-.19.52-.36.74-.57.09-.09.08-.27.12-.41.28.01.56.02.84.03.06-.24.23-.3.45-.28,0-.05-.01-.09-.02-.14.03,0,.07.01.1.02-.03.04-.05.07-.08.11-.15.1-.3.2-.46.3-.28,0-.56-.01-.83-.02-.21.24-.43.45-.79.35l.02.02c.03-.28.28-.35.48-.44.95-.43,1.89-.87,2.86-1.25.52-.2.94-.47,1.25-.95.21-.34.35-.79.83-.9l-.02-.02c-.16.76-.77,1.24-1.15,1.85-.03.03-.05.07-.08.1.02-.04.04-.09.06-.13.26.01.52.03.75.04.65-1.21,1.4-2.23,2.37-3.13.22.46-.5.73-.15,1.2.24-.29.47-.56.69-.83.22-.27.43-.56.67-.82.22-.24.37-.57.81-.74-.11.33-.18.54-.25.76-.03.07-.07.13-.1.2,0,0,.04.04.06.06,0-.1,0-.19,0-.29.13-.06.29-.09.37-.18.25-.29.48-.6.72-.91-.25,1.37-.47,2.7.22,4,.96.17,1.89.33,2.81.5,0,0-.05-.03-.05-.03.89.68,1.92,1.01,3.02,1.16.78.11,1.56.2,2.33.31.37.06.74.15,1.18.24-.21.14-.33.22-.45.31.24.23.33.41.4.77.37.03.74.06,1.31.11-.39.13-.6.2-1.02.34.63.13,1.03.24,1.45.31,2.19.36,4.39.28,6.58.2.19,0,.38-.07.57-.12.06-.02.09-.11.14-.18-.07-.08-.14-.17-.23-.28.28-.13.56-.25.84-.38,0,0-.01-.07-.03-.12-.65-.08-1.34-.03-2.13-.53.72.03,1.23.06,1.74.08.51.02,1.03.11,1.67-.21-3.36-.34-6.56-.54-9.8-.91-.07-1.15.2-2.18.29-3.23.09-1.02.27-2.02.39-3.04.13-1.05.2-2.11.37-3.16.16-1.03.12-2.1.48-3.08.11-.04.18-.09.26-.09,2.2-.1,4.4-.03,6.58.27.66.09,1.3.28,1.94.47.2.06.35.27.53.41-1.47-.4-2.96-.69-4.49-.77-1.52-.08-3.03-.23-4.53-.07-.34,1.28-.93,6.21-.89,7.4.1.03.21.1.32.1,3.06,0,6.12,0,9.18,0,.15,0,.3-.05.45-.08.05-.13.13-.24.13-.34.03-1.8.07-3.61.07-5.41,0-.29-.18-.58-.28-.87.26.02.46.14.51.4.05.27.05.55.05.82-.04,3.34-.08,6.67-.12,10.01,0,.31-.08.64-.03.94.05.24-.54.39-.07.65-.19.23-.34.53-.58.67-.6.35-1.16.78-1.87.93-.58.12-1.14.29-1.72.42-2,.44-4,.8-6.06.78-.48,0-.92-.02-1.32-.37-.22-.19-.56-.31-.86-.34-.93-.11-1.87-.17-2.81-.23-.09,0-.18.11-.27.17.07.08.1.16.16.18.11.03.3-.03.33.02.26.46.72.39,1.13.45.39.06.78.08,1.17.16.21.05.4.18.7.33-.4.43-.85.39-1.26.43-.43.05-.87.12-1.29.06-.4-.06-.78-.27-1.17-.41-.64,2.09-.94,4.4-.74,5.66,5.74,1.34,11.6,2.21,17.47,3.06.24-.7.07-1.38.15-2.03.09-.66.15-1.33.29-1.98.13-.61.31-1.22.52-1.81.23-.62.54-1.22.81-1.83.27-.59.76-1.07,1-1.71-1.52-.22-5.21-.1-9.11.27h0c.11-.11.2-.26.32-.29.76-.2,1.54-.33,2.29-.55,1.03-.3,2.07-.38,3.14-.39,5.11-.05,10.22.07,15.33.23,1.61.05,3.22.13,4.83.27,1.21.11,2.42.25,3.64.22.23,0,.47.04.7.07,2.38.26,4.76.52,7.14.79,1.52.17,3.04.39,4.57.51,1.65.13,3.26.46,4.88.79.46.09.93.11,1.39.16,0,0-.03-.02-.03-.02.43.17.85.37,1.3.49,1.42.4,2.86.76,4.28,1.18,1.42.41,2.83.86,4.24,1.32.61.2.64.31.53,1.06l.03-.03ZM13.32,33.04c-.31-.14-.62-.27-.92-.4-.47.67-.47.67-.21,1.07.21.33.45.64.67.96.03.04-.02.13-.03.21-.31-.07-.63-.14-.96-.21.02,1.42.48,2.45,1.86,2.84.13.35.25.68.34.92.39.28.72-.26,1.05.1-.02.15-.01.32-.08.45-.25.48-.53.95-.82,1.48.13.24.28.51.44.77.03.05.13.05.32.12.71-2.13,1.07-4.27.71-6.48-.37-.18-.69-.33-.99-.48-.28.13-.55.25-.85.38-.35-.58-.72-1.08-.53-1.76.12-.12.23-.24.32-.34.48.17.37.76.89.87-.05-.65-.09-1.27-.16-1.88-.01-.13-.12-.24-.19-.39-.23.26-.42.45-.59.66-.25.32-.41.67-.27,1.09ZM12.58,41.33c.36-.77.59-1.58.73-2.49-.47-.01-.88-.11-1.29.28.11.44.21.89.32,1.33.07.3.16.59.24.88.35.55.63,1.13.83,1.86-.26-.02-.41,0-.54-.04-.44-.15-.69-.5-.88-.9-.4-.83-.61-1.7-.64-2.61-.02-.4-.06-.77-.27-1.13-.36-.63-.48-1.33-.42-2.05.07-.7.16-1.4.32-2.09.3-1.3.79-2.54,1.5-3.73-.2-.12-.35-.22-.62-.39-.5,1.19-1.25,2.16-1.65,3.31-.28.79-.41,1.6-.42,2.43-.01.82.02,1.65.03,2.47.03,1.49.1,2.98.74,4.36.1.21.18.44.21.67.03.22-.02.45-.03.53.41.55.74.98,1.06,1.43.46.65.97,1.23,1.7,1.6.69.35,1.39.33,2.01-.1.41-.29.76-.68,1.06-1.08.47-.64.72-1.4.88-2.17.35-1.7.53-3.42.42-5.15-.07-1.01-.08-2.04-.5-2.99-.53.05-.58.09-.49.53.42,2.02.43,4.06.14,6.1-.12.81-.29,1.63-.57,2.4-.21.57-.64,1.06-1,1.57-.19.27-.47.4-.8.44-.46.06-.88-.05-1.21-.36-.4-.37-.74-.81-1.09-1.22-.03-.04,0-.14.01-.26.24.11.46.22.65.31.81-.68.86-1.51.67-2.4-.08-.38-.18-.77-.3-1.14-.12-.4-.27-.43-.79-.19ZM17.76,32.25c.84,1.37,1.66,2.75,2.52,4.1.63,1.01,1.44,1.86,2.46,2.5,2.14,1.36,4.47,2.09,7,2.14.18,0,.41.06.44-.27-1.66-.82-3.12-1.95-4.46-3.22-1.34-1.26-2.62-2.59-3.99-3.95-1.36-.07-2.55-.88-3.96-1.32ZM15.08,30.15c.57.38,1.13.52,1.7.59.78.1,1.56.17,2.34.26,2.46.27,4.92.52,7.38.8,3.2.35,6.4.72,9.6,1.07.35.04.71.07,1.06.06.33-.01.49-.21.43-.57-.1-.04-.2-.11-.31-.12-7.27-.73-14.54-1.45-21.81-2.18-.1,0-.21.04-.4.09ZM38.44,30.59c-.81-.1-1.59-.19-2.36-.28-2.58-.28-5.16-.56-7.73-.84-2.34-.26-4.69-.52-7.03-.77-.15-.02-.31.02-.45.06-.05.01-.1.11-.11.18,0,.07.02.18.07.2.17.08.36.16.54.18.9.12,1.8.21,2.69.32,4.68.59,9.35,1.18,14.03,1.76.14.02.29-.03.5-.06-.05-.28-.09-.49-.14-.75ZM15.08,44.18c-.76.48-1.33.74-1.7,1.29.31.29.59.49,1,.31.28-.39.53-.81.7-1.6ZM11.33,36.45c-.03-.06-.07-.12-.1-.18-.04.06-.1.11-.11.17,0,.06.06.11.1.17.04-.05.08-.11.11-.16Z"/>
  <path class="cls-1" d="M57.56,43.05c-.18.03-.3.07-.41.06-3.22-.2-6.42-.59-9.58-1.24-.74-.15-1.44-.4-2.09-.78-1.09-.64-1.86-1.56-2.25-2.77-.04-.11-.05-.23-.07-.35,0-.08.01-.16.03-.29.22-.01.44-.06.66-.03,3.07.42,6.15.86,9.22,1.29.82.11,1.64.21,2.45.33.42.06.84.14,1.27.21.25,1.19.5,2.33.76,3.57Z"/>
  <path class="cls-1" d="M91.27,36.78s.03,0,.03,0c-.54-.72-1.12-1.4-1.6-2.15-.51-.79-.78-1.7-.94-2.63-.04-.22,0-.45,0-.71.58.06.9.4,1.15.8.21.33.41.67.56,1.03.6,1.47,1.48,2.74,2.68,3.88-.22.12-.51.18-.55.32-.07.23-.13.34-.36.32-.08-.08-.15-.16-.23-.25-.24-.2-.49-.4-.73-.61Z"/>
  <path class="cls-1" d="M94.07,34.6c-.66.1-1.32.1-1.96-.06-.11-.03-.2-.16-.3-.24.33-.39.73.11,1.01-.21-.03-.06-.05-.16-.09-.18-.33-.09-.69-.12-1-.27-.17-.08-.36-.35-.36-.53,0-.27.31-.32.54-.33.62-.02,1.24,0,1.94,0,.37.57.35,1.2.2,1.86,0,0,.03-.04.03-.04Z"/>
  <path class="cls-1" d="M90.75,32.09c.17-.22.22-.34.31-.38.72-.33,1.48-.45,2.27-.47.04,0,.09,0,.11.02.1.1.23.2.27.33.02.07-.1.26-.17.27-.87.19-1.73.46-2.78.22Z"/>
  <path class="cls-1" d="M90.88,30.84c.29-.31.56-.64.86-.93.3-.28.32-.27.3-.96.49.07.74.38.94.83-.55.58-1.27.85-2.11,1.06Z"/>
  <path class="cls-1" d="M11.81,13.09c.03-.11.02-.24.08-.32,1.02-1.23,2.15-2.35,3.37-3.37.08-.06.21-.05.32-.08,0,0-.02-.02-.02-.02-.07.13-.12.28-.22.38-1.05,1.07-2.11,2.13-3.18,3.19-.1.1-.25.14-.38.21l.02.02Z"/>
  <path class="cls-1" d="M8.32,25.17c-.16-1.17.29-2.13,1.52-3.21-.19.39-.31.61-.41.84-.13.29-.25.58-.36.87-.09.26-.15.53-.25.79-.09.24-.11.54-.51.71Z"/>
  <path class="cls-1" d="M.97,24.18c-.07-.2-.36-.27-.3-.57.2-1.11.56-2.13,1.36-2.96.02-.02.07,0,.11-.01,0,0-.02-.02-.02-.02.04.39-.28.62-.43.92-.4.84-.85,1.66-.75,2.64h.03Z"/>
  <path class="cls-1" d="M77.59,5.47c-.03-.05-.06-.1-.09-.15-.13-.17-.25-.34-.38-.51,0,0,.03.04.03.04-.09-.17-.17-.34-.26-.52-.05-.06-.1-.13-.15-.19-.02-.17-.04-.34-.07-.51,0,0-.02.02-.02.02.13.08.3.13.37.24.51.82,1,1.66,1.49,2.49.05.09.02.22.03.34,0,0,.02-.02.02-.02-.21-.06-.41-.13-.62-.19.11-.2.12-.38-.12-.5-.08-.18-.15-.36-.23-.55Z"/>
  <path class="cls-1" d="M78.54,6.73c.09.06.22.1.27.18.46.77.92,1.54,1.36,2.31.05.09.02.22.02.34,0,0,.02-.02.02-.02-.04,0-.1,0-.11-.03-.52-.86-1.04-1.72-1.55-2.58-.03-.05,0-.15.01-.23l-.02.02Z"/>
  <path class="cls-1" d="M80.9,10.74c.09.06.22.1.27.18.46.76.91,1.53,1.36,2.31.05.09.02.22.03.34,0,0,.02-.02.02-.02-.09-.06-.22-.09-.27-.18-.46-.77-.92-1.54-1.36-2.32-.05-.09-.02-.22-.02-.34l-.02.02Z"/>
  <path class="cls-1" d="M2.14,20.64s-.03-.09-.01-.11c.46-.78,1.03-1.43,1.89-1.77l-.02-.02c-.51.75-1.17,1.35-1.89,1.89l.02.02Z"/>
  <path class="cls-1" d="M4.02,18.75c.48-.61.71-.76,1.42-.94,0,0-.02-.02-.02-.02-.46.54-.73.72-1.42.95l.02.02Z"/>
  <path class="cls-1" d="M10.87,14.28c.11-.56.41-.96.94-1.18,0,0-.02-.02-.02-.02-.25.64-.38.8-.94,1.18l.02.02Z"/>
  <path class="cls-1" d="M80.19,9.56c.47.25.68.66.71,1.18,0,0,.02-.02.02-.02-.46-.26-.67-.66-.71-1.18l-.02.02Z"/>
  <path class="cls-1" d="M41.95,30.88h.36s0,.02,0,.03h-.36s0-.02,0-.03Z"/>
  <path class="cls-1" d="M79.55,33.54c-.11.02-.22.05-.32.05-.03,0-.07-.09-.1-.14.03,0,.08-.04.1-.03.1.04.2.1.3.14,0,0,.02-.03.02-.03Z"/>
  <path class="cls-1" d="M11.88,17.45s.06.04.09.06c-.03-.01-.07-.03-.1-.04,0,0,0-.02,0-.02Z"/>
  <path class="cls-1" d="M20.96,6.91c.18-.07.35-.14.53-.21-.12.23-.3.3-.54.18,0,0,0,.03,0,.03Z"/>
  <path class="cls-1" d="M72.37,17.45c1.01.11,2.02.22,3.04.34,3.04.34,6.09.68,9.13,1.03,4.15.48,8.21,1.38,12.21,2.55,3.28.96,6.56,1.89,9.85,2.85.32.09.63.24,1.03.39-.35.51-.8.65-1.25.73-.54.09-1.09.11-1.64.1-.59,0-1.18-.08-1.77-.1-.39-.01-.77.02-1.16.11,3.5.43,6.98.88,10.4,1.79-1.45,0-2.89-.02-4.34.01-.54.01-1.1.11-1.62.28-1.05.34-1.57,1.13-1.56,2.23,0,.99.37,1.85,1.01,2.58.46.53.98,1.01,1.48,1.52.38.38.81.73,1.11,1.18-.2.24-.33.04-.42-.03-.64-.46-1.28-.92-1.88-1.42-.84-.71-1.68-1.43-2.47-2.19-1.59-1.51-3.43-2.61-5.43-3.46-5.04-2.16-10.27-3.7-15.67-4.64-.73-.13-1.48-.21-2.21-.32,0,0,.03.02.03.02-.06-.1-.12-.2-.23-.38,1.89-.11,3.72-.07,5.55-.03,1.81.04,3.61.1,5.42.2,1.84.1,3.68.24,5.73.38-1.4-.51-2.66-.59-3.89-.85-.77-.17-1.54-.29-2.32-.42-.81-.14-1.62-.26-2.45-.24-1.46.04-2.9-.15-4.34-.39-1.08-.18-2.15-.41-3.27-.22-.45.08-.94-.03-1.41-.07-1.28-.1-2.57-.1-3.87-.09.06.19.09.29.14.46-.63.12-1.26.03-1.86-.07-3.22-.55-6.49-.58-9.73-.88-1.56-.14-3.13-.26-4.7-.38-.52-.04-1-.19-1.44-.46-.11-.07-.18-.21-.25-.29.13-.3.35-.28.53-.3,1.61-.21,3.2-.16,4.81.09,2.48.39,4.97.72,7.46,1.06.35.05.71.06,1.06.02,2.49-.33,4.98-.68,7.47-1.02.27-.04.53-.1.96-.19-.57-.26-1.02-.3-1.46-.36-1.79-.27-3.57-.52-5.36-.77-.22-.03-.36-.12-.43-.33h0ZM80.4,20.83s.1-.05.15-.08c-.03-.01-.06-.04-.09-.04-.07,0-.14.02-.21.03.05.03.1.06.15.09Z"/>
  <path class="cls-1" d="M100.66,21.2c1.21.31,2.42.63,3.64.93,1.98.49,3.97.97,5.95,1.45.22.05.45.07.72-.01-.22-.14-.43-.3-.66-.42-2.64-1.35-5.41-2.29-8.35-2.75-4.04-.64-8.08-1.23-12.14-1.69-4.26-.48-8.51-.94-12.77-1.42-.07,0-.13-.07-.3-.15.35-.03.61-.07.87-.07,1.18.02,2.36.02,3.54.1,7.65.5,15.25,1.46,22.8,2.81,1.51.27,3,.6,4.5.93,1.46.32,2.89.75,4.25,1.39,2.09,1,4.17,2.02,6.25,3.03.24.12.46.27.67.39-.02.31-.22.25-.35.24-2.32-.12-4.63-.24-6.95-.39-.38-.02-.78-.11-1.13-.26-3.19-1.33-6.43-2.53-9.74-3.56-.22-.07-.45-.15-.66-.26-.08-.04-.08-.2-.12-.31h-.01Z"/>
  <path class="cls-1" d="M56.08,15.8c-1.57.27-8.12.87-8.82.81.1-2.15,2.23-3.67,4.85-3.44.06.04.15.07.19.13.43.62,1.03.83,1.75.71.7-.12,1.22.17,1.68.64.26.27.28.36.35,1.15Z"/>
  <path class="cls-1" d="M67.14,14.91c-3.57.29-6.87.62-10.16.85-.23-.59-.42-1.09-.61-1.59.07-.2.25-.16.39-.17,2.62-.09,5.24-.13,7.86-.27,1.01-.06,1.67.4,2.52,1.17Z"/>
  <path class="cls-1" d="M124.79,23.62c1.79,0,3.38.64,4.95,1.31,1.99.84,3.31,1.66,3.95,2.4-1.14-.23-5.76-2.06-8.03-3.18-.3-.15-.58-.35-.87-.52Z"/>
  <path class="cls-1" d="M72.37,17.45c-.37.03-.73.05-1.1.08,0-.03,0-.05,0-.08.37,0,.73,0,1.1,0,0,0,0,0,0,0Z"/>
  <polygon class="cls-1" points="99.17 21.01 99.19 20.96 99.26 20.99 99.17 21.01"/>
  <path class="cls-1" d="M100.67,21.19c-.17.04-.34.08-.51.13,0-.04-.01-.07-.02-.11.17,0,.33,0,.51,0,0,0,.02-.01.02-.01Z"/>
  <path class="cls-1" d="M32,21.19c-.09,0-.19-.02-.07,0-.12,0-.02,0,.08,0,0,0,0,.01,0,.01Z"/>
  <path class="cls-1" d="M66.03,11.42h.27c0,.16,0,.33-.01.51-.09-.17-.17-.34-.26-.51Z"/>
  <path class="cls-1" d="M130.26,23.61c.1-.02.19-.04.29-.06,0,0,0,0,0,0-.1.02-.19.04-.29.06,0,0,0,0,0,0Z"/>
  <path class="cls-1" d="M119.76,42.82c-.48-1.7-.03-2.01,1-2.62,1.19-.7,2.51-1.12,3.81-1.54,3.86-1.25,7.78-1.43,11.74-.6.65.14,1.28.37,1.91.59.41.14.46.21.93.74-.3.12-.57.26-.85.34-1.74.49-3.48.94-5.22,1.45-.75.22-1.45.3-2.11-.26-.21.11-.44.16-.53.3-.31.48-.74.62-1.28.68-1.91.2-3.82.45-5.73.67-.86.1-1.72.17-2.58.23-.35.03-.7,0-1.1,0Z"/>
  <path class="cls-1" d="M137.89,45.13c-.24-.31.05-.53.22-.81-.26-.05-.43-.08-.6-.11l.02.03c.02-.45.54-.53.66-.94-.24-.22-.41.03-.58.11-1.98.99-4.05,1.7-6.22,2.12-.3.06-.6.06-1.05.11.16-.18.22-.26.34-.39-.44-.16-.85,0-1.25.05-.47.05-.94.09-1.41.13-.43.04-.86.1-1.29.13-.47.04-.94.05-1.41.08-.43.03-.86.05-1.29.08-.43.03-.86.08-1.29.1-.47.03-.94.05-1.41.06-.43,0-.85,0-1.31,0-.32-.75-.26-1.47-.21-2.21.14-.05.24-.12.35-.13,1.8-.17,3.6-.32,5.4-.5,1.13-.11,2.26-.28,3.39-.42.54-.07,1.06-.2,1.58.17.31.22.72.07.94-.24.28-.4.69-.49,1.11-.58,2.15-.47,4.27-1.03,6.36-1.73.18-.06.37-.07.58-.11.25.49-.42,1.07.29,1.44,0,0,.08.03.15.02.22-.03.45-.19.66.03.24.27.09.54-.05.76-.26.39-.54.78-.87,1.11-.42.41-.91.75-1.35,1.13-.17.15-.31.32-.47.49h0Z"/>
  <path class="cls-1" d="M135.43,45.9c.21-.01.43-.02.65-.04,0,0-.03-.03-.03-.03-.15.31-.48.37-.75.49-1.77.78-3.64,1.2-5.56,1.4-1.01.1-2.03.13-3.05.16-.3.01-.6-.05-.95-.09.07-.12.1-.21.13-.22,2.9-.45,5.78-1.06,8.62-1.81.36-.1.69-.2.96.15-.07-.02-.13-.05-.19-.04-.03,0-.05.09-.08.13.03,0,.08.03.1.01.06-.04.1-.09.15-.13Z"/>
  <path class="cls-1" d="M137.51,44.21c-.03.06-.06.11-.08.17l-.09-.12c.07,0,.14-.02.2-.03,0,0-.02-.03-.02-.03Z"/>
  <path class="cls-1" d="M137.89,45.12c-.07,0-.15,0-.22-.03-.05-.01-.09-.06-.13-.09.06-.01.13-.05.18-.03.06.03.11.1.16.16,0,0,0,0,0,0Z"/>
  <path class="cls-1" d="M136.76,45.78c0-.08,0-.16,0-.24,0,.08,0,.16,0,.24h0Z"/>
  <path class="cls-1" d="M136.76,45.78c-.24.02-.47.04-.71.06,0,0,.03.03.03.03.19-.28.45-.14.69-.09,0,0,0,0,0,0Z"/>
  <path class="cls-1" d="M70.91,37.79c.09.33-.2.48-.35.69-1.14,1.63-1.9,3.42-2.29,5.37-.11.53-.23,1.07-.02,1.63h1.06c.08,1.4.16,2.77.23,4.13-.28.09-.37-.09-.43-.27-.09-.29-.17-.59-.25-.9-.3.1-.23.33-.2.47.11.49.25.99.41,1.47.17.52.38,1.03.57,1.54.17.45.25.9.16,1.46-.26.01-.51.03-.77.04-.42-1-.62-2-.82-2.99-.18-.88-.32-1.78-.45-2.67-.13-.89-.19-1.79-.04-2.7.11-.7.13-1.41.21-2.11.16-1.35.6-2.59,1.38-3.71.5-.72.84-1.02,1.61-1.45Z"/>
  <path class="cls-1" d="M70.5,55.02c.89.47,1.02.59,1.5,1.43-.61-.44-1.03-.82-1.5-1.43Z"/>
  <path class="cls-1" d="M72.32,49.3c-.07.02-.13.04-.2.06.02,0,.04-.02.07-.03.03,0,.07-.01.11-.02,0,0,.02,0,.02,0Z"/>
  <path class="cls-1" d="M78.06,8.82c.26.19.49.4.51.75-.32-.15-.41-.45-.51-.75Z"/>
  <path class="cls-1" d="M77.84,8.36c.08.17.17.34.25.51-.08-.17-.17-.34-.25-.51Z"/>
  <path class="cls-1" d="M77.12,7.4c.27.11.17.4.27.59-.09-.2-.18-.39-.27-.59Z"/>
  <path class="cls-1" d="M77.95,11.81s.06-.09.09-.13c-.02.05-.04.1-.06.15,0,0-.03-.01-.03-.01Z"/>
  <path class="cls-1" d="M88.73,40.92c1.11.36,2,.65,2.89.94.84.27,1.76.22,2.59.59-1.36.27-2.71.29-4.05,0-.55-.12-1.05-.35-1.31-.9-.06-.12-.06-.27-.12-.63Z"/>
  <path class="cls-1" d="M77.86,5.99c.04.17.08.34.11.5-.2-.11-.39-.24-.39-.5.09,0,.18,0,.27,0Z"/>
  <path class="cls-1" d="M21.45,6.74c.08-.26.31-.24.52-.27-.17.09-.35.18-.52.27Z"/>
  <path class="cls-1" d="M21.92,6.5c.1-.27.39-.16.57-.27-.19.09-.38.18-.57.27Z"/>
  <path class="cls-1" d="M15.29,36.47c-.05.11-.08.17-.11.22-.09-.05-.18-.09-.27-.14.02-.03.04-.08.07-.08.09-.01.18,0,.3,0Z"/>
</svg>